/* XPM */
static char *magick[] = {
/* columns rows colors chars-per-pixel */
"32 32 251 2",
"   c #020200",
".  c #010005",
"X  c #050100",
"o  c #070007",
"O  c #06000a",
"+  c #06000e",
"@  c #0a0001",
"#  c #080005",
"$  c #0e0000",
"%  c #0d0005",
"&  c #09000e",
"*  c #0d0009",
"=  c #0f010f",
"-  c #050010",
";  c #090012",
":  c #0e0012",
">  c #0d0117",
",  c #0d001f",
"<  c #0f0a1e",
"1  c #110001",
"2  c #100408",
"3  c #120017",
"4  c #100516",
"5  c #100119",
"6  c #14001b",
"7  c #100815",
"8  c #170a1b",
"9  c #130528",
"0  c #17022d",
"q  c #190025",
"w  c #180523",
"e  c #1d0127",
"r  c #19072f",
"t  c #1b003a",
"y  c #1d0738",
"u  c #190c3a",
"i  c #1c0c3d",
"p  c #230032",
"a  c #2c0a3d",
"s  c #21123b",
"d  c #1d0b49",
"f  c #200e4a",
"g  c #240e4f",
"h  c #270856",
"j  c #2e0756",
"k  c #280a54",
"l  c #2b0e51",
"z  c #2f0e55",
"x  c #2a0b59",
"c  c #211046",
"v  c #281147",
"b  c #281646",
"n  c #291248",
"m  c #2c125c",
"M  c #2d1d5e",
"N  c #330f57",
"B  c #36145c",
"V  c #260667",
"C  c #280f63",
"Z  c #2e0c63",
"A  c #2e1569",
"S  c #320f69",
"D  c #3c0f6c",
"F  c #311760",
"G  c #331269",
"H  c #33116e",
"J  c #34166c",
"K  c #30177f",
"L  c #361679",
"P  c #371d78",
"I  c #391575",
"U  c #3b177b",
"Y  c #2f2271",
"T  c #3b2379",
"R  c #411779",
"E  c #371e86",
"W  c #381684",
"Q  c #391881",
"!  c #3b1d81",
"~  c #3f1a82",
"^  c #3f1c84",
"/  c #3e1a86",
"(  c #3b1e8c",
")  c #3d1b8c",
"_  c #391e89",
"`  c #361d93",
"'  c #3f1c91",
"]  c #391a92",
"[  c #3f2185",
"{  c #3f2193",
"}  c #3f269b",
"|  c #401781",
" . c #461389",
".. c #40198e",
"X. c #471c88",
"o. c #421d8e",
"O. c #411f91",
"+. c #43189b",
"@. c #431c99",
"#. c #4a1a90",
"$. c #4b1f98",
"%. c #531fa5",
"&. c #43218f",
"*. c #47228b",
"=. c #402984",
"-. c #4b228a",
";. c #452296",
":. c #46249f",
">. c #4525aa",
",. c #4a20aa",
"<. c #4b28a0",
"1. c #4725b0",
"2. c #4d27b2",
"3. c #4d2bb3",
"4. c #5121ab",
"5. c #5024ad",
"6. c #5229a3",
"7. c #5429ae",
"8. c #5226b7",
"9. c #5523b6",
"0. c #5627b3",
"q. c #5626b6",
"w. c #5327ba",
"e. c #572bba",
"r. c #562abe",
"t. c #5923bf",
"y. c #592ab1",
"u. c #5a2fb2",
"i. c #5c33bd",
"p. c #5324c0",
"a. c #5424c5",
"s. c #532ac8",
"d. c #5229cf",
"f. c #5f27c0",
"g. c #5d2ac3",
"h. c #5e2ec0",
"j. c #592ac8",
"k. c #5a2cd5",
"l. c #5331c6",
"z. c #5d33c3",
"x. c #6027cc",
"c. c #652ed1",
"v. c #692ddb",
"b. c #6833cc",
"n. c #6330d5",
"m. c #6332d9",
"M. c #6831d5",
"N. c #6b38d5",
"B. c #6938df",
"V. c #7239de",
"C. c #662fe2",
"Z. c #6b2de6",
"A. c #6f2efe",
"S. c #6735e6",
"D. c #6332ed",
"F. c #643cea",
"G. c #6833e7",
"H. c #6b34e9",
"J. c #6836ef",
"K. c #6f31ea",
"L. c #6e33ed",
"P. c #6d39ed",
"I. c #6039f6",
"U. c #6739f1",
"Y. c #673af4",
"T. c #663cf6",
"R. c #6b31f7",
"E. c #6e33f1",
"W. c #6e36f5",
"Q. c #6a32ff",
"!. c #6834f9",
"~. c #6d33fa",
"^. c #6e32ff",
"/. c #6d36fa",
"(. c #6d37fe",
"). c #683bf6",
"_. c #6a3bf9",
"`. c #6b39fd",
"'. c #6d39fb",
"]. c #7029ef",
"[. c #712ef0",
"{. c #702df6",
"}. c #752ef6",
"|. c #722ef9",
" X c #722efe",
".X c #762ff9",
"XX c #762efe",
"oX c #7a2ffb",
"OX c #792eff",
"+X c #7c2ffb",
"@X c #7d2eff",
"#X c #7132e3",
"$X c #7230ea",
"%X c #7032ed",
"&X c #7235ed",
"*X c #7633ed",
"=X c #7636ef",
"-X c #723ae6",
";X c #733ded",
":X c #7439e9",
">X c #7a32eb",
",X c #7831ef",
"<X c #7c32eb",
"1X c #7332f3",
"2X c #7132f6",
"3X c #7235f2",
"4X c #7335f6",
"5X c #7532f1",
"6X c #7532f6",
"7X c #7635f6",
"8X c #7232f9",
"9X c #7231ff",
"0X c #7236fa",
"qX c #7235fe",
"wX c #7632fa",
"eX c #7632fe",
"rX c #7635fa",
"tX c #7734fe",
"yX c #7039f6",
"uX c #7539f2",
"iX c #763af6",
"pX c #733af9",
"aX c #7239ff",
"sX c #733eff",
"dX c #7639fa",
"fX c #7639ff",
"gX c #7932f5",
"hX c #7934f3",
"jX c #7935f5",
"kX c #7d32f6",
"lX c #7c35f5",
"zX c #7a32fa",
"xX c #7932ff",
"cX c #7936fa",
"vX c #7935ff",
"bX c #7d33ff",
"nX c #7d36fa",
"mX c #7d36ff",
"MX c #7938f5",
"NX c #7d3bf7",
"BX c #7a3bfa",
"VX c #7a39ff",
"CX c #7a3dff",
"ZX c #7c39f8",
"AX c #7d39fe",
"SX c #7d3dff",
"DX c #7341fa",
"FX c #802efc",
"GX c #8031ff",
"HX c #8534ff",
"JX c #8038fc",
/* pixels */
"xXvXcX4XqXVXVXA.<XmXvXOXHXFXgXqXqXeXoXvXjXkX.XqXqXvXvXxXqXqXvXvX",
"eXwXwXvXqX1X1XZXSX3X^.qX7XwXCX'.iXgXzXeXqXbXzX0XvXqXqXvXvXvXvXqX",
"vXVXvXeXvXmXxXcXA.qXdXfXvX{.qXaXeXbXSXS./.vXxXqXvXvXqXvXqXvXqXvX",
"eXeXvXvXeXXXXXvXmXxXjXOXGXzXhXxXOXOXf.m :.E.wXVXqXvXvXqXvXvXqXvX",
"qX9XxX7XxXSXiX-X%XxXmX].xXSX=XqXwXmX4.o T ;XwXwXqXvXvXvXxXvXqXvX",
"rXeXvXcXVXb.U V n ..H.CX'.@.x Z 0.fXj.O _ fXxXvXvXvXqXqXqXvXvXqX",
"ZXvX6XvX1XI 5 M c = +.aX! ; v l , ,.r.@ ( 9XXX5XvXqXqXvXvXvXvXqX",
"8XvXwXvXqXl X Y d.6.qX3Xe t DXC.X W 2.X ) qXbXrXvXvXxXvXqXqXvXvX",
"VXeXxXxXvX7.w X O 2 ' sX$ * ; # @ l <.X P iXOXeXqXvXvXqXvXxXqXvX",
" XeXvXwXqXW.s.l.=.@ ; I.4 8 T.Y.F.!.k.; ] dXlXvXqXeXvXqXqXvXqXvX",
"vX5X*XmXK.a % O.} 9 r ).F % E ` @ $.5.# ' qXgXeXvXvXvXvXvXqXvXvX",
"rXvXrX6XVXc.z 1 * y 8.CXG.S * @ H M.9.3 ~ 5XmXvXvXqXqXvXqXvXvXqX",
"vXeXcXVXqXeX0XaX4XqXVXR.pX8X9XfXQ.qXSXP.aXeXjX1XvXqXqXxXvXvXxXqX",
"cXeX4X&X9X9XqXqXeXxXxXxXSXjXmX#XCX[.|.qXqXgXmXqXqXvXvXvXvXqXvXvX",
"eXeXvXSX9XqXJXwXfXrXxX@X@XOXeX0XqXmXmXqXqXbXOX^.vXvXvXqXvXqXqXvX",
"xXqX&X4XqXcXhXcX7XqXqXVX1XVXqXeXdXOX>XdXqXbX*XfXvXqXvXqXvXvXqXvX",
"vXvX1XVXvXqXeXmXxXMXXX7XZXxX*XxXeXmXkXqXY.fXGXqXvXqXvXvXeXvXqXvX",
"eXeXjXeX9XVXqX8XvXvXvXxX9XeXvXqXeX1X,X%.g g.+X8XvXvXqXvXqXvXvXqX",
"eXvXcXeXqX:XuXqXvXfXMXrXqXfX0XP.W.aXvXR X y.bXfXqXqXvXvXvXvXvXqX",
"vXvXeXvX7X#.X.aX3Xq. .v._.;.B h o.J.VX~ O e.OXqXvXvXvXqXqXqXvXvX",
"5XxXxXvX8Xj 6 `./.l p Z.>.; N H , L W./ . e.xXiXvXqXqXvXvXvXqXvX",
"vXXXvX6XVX-.@ 3.D.& D qXu > L.sXb = n.&.  w.OX7XvXvXvXvXxXqXqXvX",
"SXeXxX5XvXB.0 f {   x.8XX s qX^.=.@ r.O.  a.@XqXqXvXeXqXvXqXvXvX",
"|.cXxXNX9XaXA 7 d 8 uXqXO i zXqXK & u.Q - p.nX8XqXvXvXqXvXvXvXqX",
"1XqXxXgXvXqXi.# O *.qXfXB 3 T 1.& C U.^ : y.qX0XvXqXvXqXvXvXxXqX",
"qXvXvXnXvX9Xm.k 3 h. XvXyXJ % : G z.sX| q t.eXuXxXvXqXvXvXqXvXvX",
"qX9XeXgXxXvXSXN.^.VXXXeXVXaX(.(.&XdXeXVXV.iXA.rXqXqXvXvXvXqXqXvX",
"vXeXvXmXzXOXeXvXqX=XmXmXwXqXvXqXbXxX|.vXvXVXeX7XvXvXvXqXvXvXqXvX",
"8X9XqXxXxXzXXXxXxXbXvX.XxXnX$XqXXXbXJXxX XvXvXxXvXqXxXvXqXqXvXxX",
"VXSXeXwXeXcXwXbXjX|.qXvXxXmXvXeXSX.XgXxXxXeX XSXvXvXqXqXvXvXvXqX",
" XeX1XVXqXqX6XeXbXrXfXfX6XzXvXrXK.rXZX7XrXVXeX6XqXvXvXvXqXvXvXqX",
"xXmX3XZXeXeXqXqXxXqX/.~.vXbXeXqXfX9X9XdX7X9XvXcXqXvXqXvXvXvXqXvX"
};
