/* XPM */
static char *magick[] = {
/* columns rows colors chars-per-pixel */
"32 32 251 2",
"   c #140000",
".  c #1d0000",
"X  c #1b0000",
"o  c #220000",
"O  c #270000",
"+  c #2a0000",
"@  c #2d0000",
"#  c #2d0500",
"$  c #310000",
"%  c #340000",
"&  c #300c00",
"*  c #3a0100",
"=  c #3d0000",
"-  c #3b0d00",
";  c #371100",
":  c #3e1c00",
">  c #351b04",
",  c #440100",
"<  c #420000",
"1  c #430c00",
"2  c #4c0c00",
"3  c #471100",
"4  c #471d00",
"5  c #4e1200",
"6  c #4c1b00",
"7  c #530d00",
"8  c #590a00",
"9  c #561400",
"0  c #591a00",
"q  c #4d2201",
"w  c #4b2808",
"e  c #5a2b05",
"r  c #582e08",
"t  c #502d11",
"y  c #593a1e",
"u  c #661500",
"i  c #661900",
"p  c #652500",
"a  c #6d2700",
"s  c #67360d",
"d  c #6c3200",
"f  c #752600",
"g  c #702e00",
"h  c #792600",
"j  c #7c2c00",
"k  c #773100",
"l  c #7e3b07",
"z  c #763c0a",
"x  c #7d410d",
"c  c #76461e",
"v  c #7e4210",
"b  c #7f4718",
"n  c #744821",
"m  c #755337",
"M  c #70553a",
"N  c #822700",
"B  c #8e3c00",
"V  c #963e00",
"C  c #82430d",
"Z  c #8c4107",
"A  c #8d470c",
"S  c #8a480e",
"D  c #874610",
"F  c #8a4710",
"G  c #8e4c13",
"H  c #884d1c",
"J  c #924101",
"K  c #954402",
"L  c #94490b",
"P  c #9e4300",
"I  c #9a4c0d",
"U  c #92450d",
"Y  c #924c11",
"T  c #954f1b",
"R  c #9b4b10",
"E  c #92511c",
"W  c #875223",
"Q  c #82522a",
"!  c #87582e",
"~  c #8e5829",
"^  c #815631",
"/  c #8d5c31",
"(  c #925724",
")  c #905628",
"_  c #966031",
"`  c #97663b",
"'  c #a64600",
"]  c #a24b04",
"[  c #a55614",
"{  c #a95c1c",
"}  c #b0560a",
"|  c #b05d19",
" . c #a55d23",
".. c #a25c28",
"X. c #af601e",
"o. c #ba631c",
"O. c #af6423",
"+. c #ac672c",
"@. c #a3642e",
"#. c #a16938",
"$. c #b16a2d",
"%. c #b96924",
"&. c #bb6d2d",
"*. c #b97439",
"=. c #8f6c4e",
"-. c #896d55",
";. c #936743",
":. c #946944",
">. c #986a42",
",. c #9f7046",
"<. c #9d714c",
"1. c #957254",
"2. c #a57143",
"3. c #a2744b",
"4. c #ac7346",
"5. c #a17e5e",
"6. c #a97a50",
"7. c #b17342",
"8. c #b67e4d",
"9. c #cb6e20",
"0. c #c66b24",
"q. c #c9722b",
"w. c #c67a3c",
"e. c #d2772a",
"r. c #d77828",
"t. c #dd7a29",
"y. c #d27d35",
"u. c #df7f33",
"i. c #f47d1f",
"p. c #e17b29",
"a. c #eb7f27",
"s. c #e97f31",
"d. c #c57e40",
"f. c #9b8065",
"g. c #b68356",
"h. c #bb9473",
"j. c #d1823f",
"k. c #da8034",
"l. c #da833d",
"z. c #ed8025",
"x. c #ed822b",
"c. c #e3873b",
"v. c #ee8634",
"b. c #ec873b",
"n. c #ed8935",
"m. c #eb8b3b",
"M. c #e58433",
"N. c #f58424",
"B. c #f4862b",
"V. c #f7892e",
"C. c #fc8626",
"Z. c #f9872b",
"A. c #ff8926",
"S. c #fe8a2a",
"D. c #fd892d",
"F. c #ff8d2e",
"G. c #fc8b2b",
"H. c #f08630",
"J. c #f28b34",
"K. c #f78b31",
"L. c #f68d36",
"P. c #f38b33",
"I. c #f58e3a",
"U. c #f28e3b",
"Y. c #f98a31",
"T. c #fa8d32",
"R. c #f98e35",
"E. c #fe8f32",
"W. c #fe8f35",
"Q. c #fb8a34",
"!. c #f98e39",
"~. c #fc8f3c",
"^. c #f5903b",
"/. c #f6913d",
"(. c #ff9132",
"). c #fe9136",
"_. c #ff9635",
"`. c #fa9136",
"'. c #fa9039",
"]. c #f9923d",
"[. c #fe9239",
"{. c #fd923d",
"}. c #ff9539",
"|. c #fe953d",
" X c #ff9a3a",
".X c #ff9a3e",
"XX c #c6854d",
"oX c #c38650",
"OX c #c98f5f",
"+X c #ca8b55",
"@X c #d28340",
"#X c #d78846",
"$X c #df8a42",
"%X c #d3894c",
"&X c #d98f50",
"*X c #d7935d",
"=X c #df9453",
"-X c #d9975d",
";X c #dd985d",
":X c #cc9364",
">X c #cb9a6f",
",X c #c39875",
"<X c #cb9d75",
"1X c #d49562",
"2X c #d69a66",
"3X c #dba16f",
"4X c #d6a376",
"5X c #d7a479",
"6X c #dca77b",
"7X c #e38b42",
"8X c #ec8d42",
"9X c #e0904b",
"0X c #ed9144",
"qX c #ec944b",
"wX c #e79652",
"eX c #e79855",
"rX c #eb9954",
"tX c #ec9c5a",
"yX c #e19a5c",
"uX c #f38f43",
"iX c #f49344",
"pX c #f3964a",
"aX c #f1984e",
"sX c #f6994b",
"dX c #fb9541",
"fX c #fc9543",
"gX c #ff9a41",
"hX c #ff9d46",
"jX c #fe9a45",
"kX c #f99b4e",
"lX c #ff9e4a",
"zX c #fc9b4c",
"xX c #f9954a",
"cX c #f69c52",
"vX c #f19a52",
"bX c #f09d59",
"nX c #f99e54",
"mX c #fe9f51",
"MX c #f99d52",
"NX c #f19552",
"BX c #e09d66",
"VX c #ea9e64",
"CX c #ffa34b",
"ZX c #fea351",
"AX c #faa25d",
"SX c #ffa959",
"DX c #f4a15b",
"FX c #e9a264",
"GX c #e2a673",
"HX c #f4a564",
"JX c #c4a080",
/* pixels */
"I.dX/.I.pXsXL.T.F. XR.R.}.R.!.[.F. XK.P.L.}.S.(.W.`.'.`.E.F.F.F.",
"!.{.{.dXxXiX^.[.Z.(.}.[.[.}.'.K.Z.}.lXlXfX[.F.(.E.).'.).E.F.F.F.",
").W.).).L.n.I.|.gXZ.E.(.W.Y.x.[.{.dXsXc.n.].)._.E.).'.).E.E.(.E.",
"(.F.F.F.T.^.iXsXdXK.E.T.gXjXH.jXsX7X%.j } n.W.E.E.).).`.E.E.E.E.",
"E.(.S.(.gXhX$Xj.7XsXgXP.iXkXM.8XwXFX+.= J 0XR.E.E.).).W.E.E.W.).",
"(._.S.).hXe.A C k V e.SX9XI h f  .2X8.$ L nX].).E.E.).).E.W.W.).",
").}.V.}.I.B * r q 1 [ eXC * p p * / ,.+ A rXI.).E.E.).).E.W.[.'.",
"K.[.L.hXm.i o M 1.` -X-X1 4 4X:XO n <.+ G rX^.T.E.(.W.).E.).'.'.",
"{.|.|.^.kX$.&     # ( 3X. X o o O e ;.$ F wXdX).E.(.W.).E.).[.'.",
"!.R.I.I.ZX&X;.f.m O * OX; : h.<X<X>X6.+ Y qXv.).E.E.).).E.W.[.'.",
"|.z.).CXt.u $ ^ >.1 7 *Xs O Q W @ ( #.$ L nXJ.E.E.E.).).E.W.W.).",
").(.E.B.].y.a $ = 9 { HX+Xd * % k d.*., J pX[.E.E.).).W.E.E.W.).",
"(._. X).'.iXqXrX$XqXkXk.tXtXj.DXqXaXrXy.kXZXT.F.E.).).`.E.E.E.E.",
"F.S.).(.L././.dX'.|.I.J.sXm.pXiX^.J.sXsXiXL.)._.E.).'.).E.E.E.E.",
"E.N.E.}.R.'.R.Z.C.S.D..X}.B.|.K.(.}.].I.v..X XN.E.`.'.).E.F.F.F.",
".XD.F.(.P.'.}.E.S.(.).B.S. XD.}.(._.K.|.T.Y.(.}.W.W.).).E.E.E.E.",
"W.E.F.F.Y.{.gXW.V.lXzXp..Xi.).E.).).D._.(.Z.}.T.Y.}.E.Z.(.}.[.}.",
"E.E.(.F.R.I.dXdXlXu.V N !..XgXx.jXI.W.W.W.).'.fXL.T.E.F.).).R.R.",
"D.S.F.D.I.8X7XDXaX7XZ i m.I.iXnXqX7XkXiXiXmXm.8XmXm.fXgX[.}.'.|.",
"F.F.W.L.iXq.L $.u { ) v HX0.J &.j f [ rXbX| f j X.J 9.^.K.W.J.J.",
").[.fXxXaXR $ 5 , l 6 - *XB % 9 D * * oXXX, , C 5 % Z m.'..X]./.",
").W.xX8XNXU + e *X1Xt . 1XT $ Q GXx + ` _ @ W 6Xc @ Y aXL.}.I.I.",
"S.Y.iXc.aXI $ ,.yX;Xw X 1XS O 3.:XE $ :.! + >.,X1.+ H wXx.T.L.^.",
"C.).mX8XpXJ + 2.wX=Xq . BXA O 3.*XG @ >.Q o :.JX-.. H tXJ.}.[.].",
"Z.!.xX8XzXV $ 7.qXAX3 + VXI @ 4.tXK $ 2.g.+ 4 =.> . ~ rXL.(.[.|.",
"|.~.xXb.v.' 8  .s.b.g 2 l.P 2 ..rX' = @.GXb 6 o y . z wX'.F.E.[.",
"E.V.!.{.gX!.l.sX}.|.#Xw.ZXI.l.tXiXlXl.tX%XE 7.5X^ - G vXT.S.(.T.",
"}.W.W.E.E.W.iXJ.C.N.aXqX).E.lXpXa.|.lXMXo.8 < 0 1 2 O.pXB.E.}.V.",
"W.W.D.E.W.Q.{.~.D.W.zXpXY.D.fXI.}.B.x.jXlXe.] J L &.cXlXV.E.).Y.",
"Y.W.D.E.W.Q.Q.{.E.[.uXU.F.F.W.{.).}.}.).R./.pXcXqXsXxXL.Y.E.W.gX",
").E.F.S.E.W.Y.W.W.{.U.I.F.S.S.).[.[.S.C.F.[.].n./.L.V.E.}.T.V.K.",
"}.S.S.A.D.|.).E.W.!.U.dXS.A.A.F.[.W.F._.(.B.R.|.R.).(.(.T.R.|.L."
};
